<?xml version="1.0" encoding="utf-8"?>
<svg viewBox="103.154 196.289 247.629 77.196" xmlns="http://www.w3.org/2000/svg">
  <defs>
    <filter id="c" filterUnits="userSpaceOnUse">
      <feColorMatrix values="0 0 0 0 0.99609375 0 0 0 0 0.99609375 0 0 0 0 0.99609375 0 0 0 1 0"/>
    </filter>
    <linearGradient x1="0" y1="1" x2="0" y2="0" id="b">
      <stop offset="0" stop-color="#00c9ff"/>
      <stop offset="1" stop-color="#92fe9d"/>
    </linearGradient>
  </defs>
  <mask id="a">
    <g class="iconsvg-imagesvg" filter="url(#c)">
      <path fill="#020e27" fill-opacity="0" stroke-width="2" class="image-rect" d="M0 0h60v77.19722605H0z"/>
      <svg width="60" height="77.19722605" class="image-svg-svg primary" style="overflow:visible">
        <svg xmlns="http://www.w3.org/2000/svg" viewBox="3.98500013 0.54067916 24.03060722 30.91830635">
          <path style="line-height:normal;font-variant-ligatures:normal;font-variant-position:normal;font-variant-caps:normal;font-variant-numeric:normal;font-variant-alternates:normal;font-feature-settings:normal;text-indent:0;text-align:start;text-decoration-line:none;text-decoration-style:solid;text-decoration-color:#000;text-transform:none;text-orientation:mixed;shape-padding:0;isolation:auto;mix-blend-mode:normal" d="M4.235 5.594a.5.5 0 0 0-.25.433V22.65a.5.5 0 0 0 .25.432l14.392 8.31a.5.5 0 0 0 .5 0l8.637-4.986a.5.5 0 0 0 .25-.432V9.392a.5.5 0 0 0-.25-.474L13.369.608a.505.505 0 0 0-.242-.067.485.485 0 0 0-.218.043zm8.884-3.975 13.393 7.732-7.635 4.41L5.485 6.028zm.012.916a.503.503 0 0 0-.262.066L7.688 5.594a.5.5 0 0 0 0 .867l10.94 6.316a.5.5 0 0 0 .5 0l5.18-2.992a.5.5 0 0 0 0-.867L13.37 2.6a.5.5 0 0 0-.238-.066zm-.012 1.078 9.94 5.738-.727.42-8.963-5.173a.5.5 0 0 0-.521.013L9.666 6.447l-.728-.42zm-.5 2.283v2.256l-.726-.42V6.316zm1 0 .729.42V9.15l-.729-.42zm-2.726.996v.264l-.229-.133zm-5.908.002 13.392 7.733v3.5l-.726-.42v-2.371a.5.5 0 0 0-.25-.434L6.46 8.586a.5.5 0 0 0-.75.433v10.64a.5.5 0 0 0 .75.43l5.182-2.991a.5.5 0 0 0 .25-.432v-3.787l.726.42v4.076l-7.634 4.408zm10.363 0 5.984 3.454-2.455 1.418-3.53-2.038zM6.71 9.887l.727.42v8.064l-.727.42zm20.303.332v14.888l-13.395-7.732v-3.498l.729.42v2.369a.5.5 0 0 0 .25.432l10.937 6.316a.5.5 0 0 0 .75-.432V12.344a.5.5 0 0 0-.75-.434l-5.181 2.992a.5.5 0 0 0-.25.434v3.787l-.727-.42v-4.076zm-18.576.664 2.455 1.418v4.076l-2.455 1.418zm16.847 2.328v8.904l-.726-.42v-8.064zm-1.726.996v6.912l-2.455-1.418v-4.076zm-8.211.666 1.303.752v1.504l-1.303-.752zm-2.229 3.367 13.395 7.735-7.637 4.408L5.485 22.65zm-.037.918a.502.502 0 0 0-.213.067l-5.181 2.992a.5.5 0 0 0 0 .865l10.94 6.316a.5.5 0 0 0 .5 0l5.18-2.992a.5.5 0 0 0 0-.865L13.37 19.225a.5.5 0 0 0-.287-.067zm.037 1.076 3.532 2.04v2.835l-5.987-3.459zm-3.455 1.994 8.713 5.032v.84l-9.44-5.452zm7.987.623.726.42v2.834l-.726-.42zm1.726.997.727.42v1.417l-.727.42zm1.727.998.226.13-.226.131zm1.228.709.727.42-3.682 2.125v-.84z" color="#000" font-weight="400" font-family="sans-serif" overflow="visible"/>
        </svg>
      </svg>
    </g>
  </mask>
  <rect width="1352" height="756" fill="url(#watermark)" class="watermarklayer" x="-432.996" y="-164.451"/>
  <g fill="#020e27" class="icon-text-wrapper icon-svg-group iconsvg" transform="matrix(1, 0, 0, 1, 103.15340423583984, 196.28831481933594)">
    <g class="iconsvg-imagesvg" mask="url(#a)">
      <path class="image-rect" fill="none" d="M0 0h60v77.19722605H0z"/>
      <svg width="60" height="77.19722605" class="image-svg-svg primary" style="overflow:visible">
        <svg xmlns="http://www.w3.org/2000/svg" viewBox="3.98500013 0.54067916 24.03060722 30.91830635">
          <path style="line-height:normal;font-variant-ligatures:normal;font-variant-position:normal;font-variant-caps:normal;font-variant-numeric:normal;font-variant-alternates:normal;font-feature-settings:normal;text-indent:0;text-align:start;text-decoration-line:none;text-decoration-style:solid;text-decoration-color:#000;text-transform:none;text-orientation:mixed;shape-padding:0;isolation:auto;mix-blend-mode:normal" d="M4.235 5.594a.5.5 0 0 0-.25.433V22.65a.5.5 0 0 0 .25.432l14.392 8.31a.5.5 0 0 0 .5 0l8.637-4.986a.5.5 0 0 0 .25-.432V9.392a.5.5 0 0 0-.25-.474L13.369.608a.505.505 0 0 0-.242-.067.485.485 0 0 0-.218.043zm8.884-3.975 13.393 7.732-7.635 4.41L5.485 6.028zm.012.916a.503.503 0 0 0-.262.066L7.688 5.594a.5.5 0 0 0 0 .867l10.94 6.316a.5.5 0 0 0 .5 0l5.18-2.992a.5.5 0 0 0 0-.867L13.37 2.6a.5.5 0 0 0-.238-.066zm-.012 1.078 9.94 5.738-.727.42-8.963-5.173a.5.5 0 0 0-.521.013L9.666 6.447l-.728-.42zm-.5 2.283v2.256l-.726-.42V6.316zm1 0 .729.42V9.15l-.729-.42zm-2.726.996v.264l-.229-.133zm-5.908.002 13.392 7.733v3.5l-.726-.42v-2.371a.5.5 0 0 0-.25-.434L6.46 8.586a.5.5 0 0 0-.75.433v10.64a.5.5 0 0 0 .75.43l5.182-2.991a.5.5 0 0 0 .25-.432v-3.787l.726.42v4.076l-7.634 4.408zm10.363 0 5.984 3.454-2.455 1.418-3.53-2.038zM6.71 9.887l.727.42v8.064l-.727.42zm20.303.332v14.888l-13.395-7.732v-3.498l.729.42v2.369a.5.5 0 0 0 .25.432l10.937 6.316a.5.5 0 0 0 .75-.432V12.344a.5.5 0 0 0-.75-.434l-5.181 2.992a.5.5 0 0 0-.25.434v3.787l-.727-.42v-4.076zm-18.576.664 2.455 1.418v4.076l-2.455 1.418zm16.847 2.328v8.904l-.726-.42v-8.064zm-1.726.996v6.912l-2.455-1.418v-4.076zm-8.211.666 1.303.752v1.504l-1.303-.752zm-2.229 3.367 13.395 7.735-7.637 4.408L5.485 22.65zm-.037.918a.502.502 0 0 0-.213.067l-5.181 2.992a.5.5 0 0 0 0 .865l10.94 6.316a.5.5 0 0 0 .5 0l5.18-2.992a.5.5 0 0 0 0-.865L13.37 19.225a.5.5 0 0 0-.287-.067zm.037 1.076 3.532 2.04v2.835l-5.987-3.459zm-3.455 1.994 8.713 5.032v.84l-9.44-5.452zm7.987.623.726.42v2.834l-.726-.42zm1.726.997.727.42v1.417l-.727.42zm1.727.998.226.13-.226.131zm1.228.709.727.42-3.682 2.125v-.84z" color="#000" font-weight="400" font-family="sans-serif" overflow="visible"/>
        </svg>
      </svg>
      <path transform="translate(-6 -6)" style="pointer-events:none" fill="url(#b)" d="M0 0h72v89.19722748H0z"/>
    </g>
    <path d="M73.91000009 25.16361416h7.46q2.25 0 4 .85 1.75.84 2.96 2.35 1.2 1.52 1.81 3.5.61 1.99.61 4.24 0 3.03-1.1 5.51-1.09 2.48-3.17 3.95-2.08 1.47-5.11 1.47h-7.46q-.81 0-1.36-.55-.55-.54-.55-1.36v-18.05q0-.81.55-1.36t1.36-.55Zm1.81 18.28h5.34q1.97 0 3.22-1.02 1.25-1.01 1.83-2.68.58-1.68.58-3.64 0-1.47-.33-2.8-.33-1.33-1.02-2.34-.69-1.02-1.75-1.61-1.06-.59-2.53-.59h-5.46l.31-.29v15.31l-.19-.34Zm21.84-11.22v12.9q0 .82-.53 1.36-.54.55-1.35.55t-1.34-.55q-.53-.54-.53-1.36v-12.9q0-.81.53-1.36.53-.54 1.34-.54t1.35.54q.53.55.53 1.36Zm-1.91-3.93q-1.06 0-1.5-.35-.44-.34-.44-1.22v-.59q0-.9.49-1.23.48-.33 1.48-.33 1.1 0 1.53.34.44.35.44 1.22v.59q0 .91-.47 1.24-.47.33-1.53.33Zm4.78 16.15q-.31-.44-.28-1.13.03-.68.81-1.18.5-.32 1.06-.27.57.05 1.1.58.9.9 1.9 1.4 1 .5 2.5.5.47-.03 1.03-.14.57-.11.99-.5.42-.39.42-1.2 0-.69-.47-1.09-.47-.41-1.23-.69-.77-.28-1.71-.53-.96-.28-1.98-.63-1.02-.34-1.86-.89-.84-.54-1.37-1.45-.53-.91-.53-2.28 0-1.56.87-2.65.87-1.1 2.26-1.69 1.4-.6 2.93-.6.96 0 2.03.24 1.06.23 2.03.75.97.51 1.62 1.36.34.47.41 1.12.06.66-.6 1.19-.46.37-1.09.33-.62-.05-1.03-.42-.53-.69-1.42-1.1-.89-.4-2.05-.4-.47 0-1.01.11-.55.1-.96.46-.4.36-.4 1.14 0 .72.47 1.14.47.43 1.26.69.8.27 1.7.52.94.25 1.91.59.97.34 1.78.91.81.56 1.31 1.45.5.89.5 2.26 0 1.6-.93 2.72-.94 1.13-2.35 1.7-1.4.58-2.87.58-1.84 0-3.69-.64-1.84-.64-3.06-2.26Zm16.21-13.81h7.41q.75 0 1.25.5t.5 1.25q0 .72-.5 1.2-.5.49-1.25.49h-7.41q-.75 0-1.25-.5t-.5-1.25q0-.72.5-1.21.5-.48 1.25-.48Zm3.35-3.91q.81 0 1.32.55.52.55.52 1.36v13.9q0 .44.17.72.17.28.47.41.3.12.64.12.38 0 .69-.14.31-.14.72-.14.43 0 .79.41.36.4.36 1.12 0 .88-.95 1.44-.95.56-2.05.56-.65 0-1.45-.11-.8-.11-1.5-.53-.7-.42-1.17-1.3-.47-.87-.47-2.4v-14.06q0-.81.55-1.36.54-.55 1.36-.55Zm24.86-.5q.81.41.96 1.29.14.87-.46 1.59-.4.56-1.04.62-.64.07-1.3-.25-.75-.34-1.58-.53-.83-.18-1.73-.18-1.69 0-3.02.53-1.32.53-2.26 1.51-.94.99-1.42 2.33-.49 1.34-.49 2.97 0 1.9.55 3.31.55 1.4 1.51 2.34.97.94 2.29 1.39 1.31.45 2.84.45.84 0 1.69-.15.84-.16 1.62-.56.66-.32 1.3-.22.64.09 1.07.65.63.78.46 1.61-.18.83-.96 1.2-.81.41-1.67.68-.86.26-1.73.4-.88.14-1.78.14-2.25 0-4.27-.72-2.01-.71-3.59-2.12-1.58-1.41-2.48-3.51-.91-2.11-.91-4.89 0-2.41.83-4.44.83-2.03 2.34-3.51 1.52-1.49 3.58-2.32 2.06-.82 4.5-.82 1.37 0 2.68.31 1.32.31 2.47.9Zm8.03-.4v19.3q0 .82-.55 1.36-.54.55-1.35.55-.79 0-1.32-.55-.53-.54-.53-1.36v-19.3q0-.81.55-1.36t1.36-.55q.81 0 1.33.55.51.55.51 1.36Zm17.9 4.18q.81 0 1.34.54.54.53.54 1.37v13.21q0 .82-.54 1.36-.53.55-1.34.55t-1.34-.55q-.53-.54-.53-1.36v-1.53l.68.28q0 .41-.43.99-.44.58-1.19 1.14-.75.56-1.77.95-1.01.39-2.2.39-2.15 0-3.9-1.11t-2.77-3.06q-1.01-1.95-1.01-4.48 0-2.56 1.01-4.51 1.02-1.96 2.74-3.07 1.71-1.11 3.81-1.11 1.34 0 2.47.41 1.12.41 1.95 1.03.83.63 1.28 1.27.45.64.45 1.07l-1.12.41v-2.28q0-.81.53-1.36t1.34-.55Zm-6.31 13.91q1.38 0 2.41-.69 1.03-.69 1.61-1.88.57-1.18.57-2.65 0-1.5-.57-2.69-.58-1.18-1.61-1.87-1.03-.69-2.41-.69-1.34 0-2.37.69t-1.61 1.87q-.58 1.19-.58 2.69 0 1.47.58 2.65.58 1.19 1.61 1.88 1.03.69 2.37.69Zm11.28.53q-.31-.44-.28-1.13.03-.68.81-1.18.5-.32 1.06-.27.56.05 1.09.58.91.9 1.91 1.4 1 .5 2.5.5.47-.03 1.03-.14.56-.11.98-.5.43-.39.43-1.2 0-.69-.47-1.09-.47-.41-1.24-.69-.76-.28-1.7-.53-.97-.28-1.98-.63-1.02-.34-1.86-.89-.84-.54-1.38-1.45-.53-.91-.53-2.28 0-1.56.88-2.65.87-1.1 2.26-1.69 1.39-.6 2.92-.6.97 0 2.03.24 1.07.23 2.03.75.97.51 1.63 1.36.34.47.41 1.12.06.66-.6 1.19-.47.37-1.09.33-.63-.05-1.03-.42-.53-.69-1.42-1.1-.89-.4-2.05-.4-.47 0-1.02.11-.54.1-.95.46-.4.36-.4 1.14 0 .72.46 1.14.47.43 1.27.69.8.27 1.7.52.94.25 1.91.59.97.34 1.78.91.81.56 1.31 1.45.5.89.5 2.26 0 1.6-.94 2.72-.93 1.13-2.34 1.7-1.41.58-2.87.58-1.85 0-3.69-.64-1.84-.64-3.06-2.26Zm15.06 0q-.32-.44-.29-1.13.04-.68.82-1.18.5-.32 1.06-.27.56.05 1.09.58.91.9 1.91 1.4 1 .5 2.5.5.47-.03 1.03-.14.56-.11.98-.5.42-.39.42-1.2 0-.69-.47-1.09-.46-.41-1.23-.69-.76-.28-1.7-.53-.97-.28-1.99-.63-1.01-.34-1.85-.89-.85-.54-1.38-1.45-.53-.91-.53-2.28 0-1.56.88-2.65.87-1.1 2.26-1.69 1.39-.6 2.92-.6.97 0 2.03.24 1.06.23 2.03.75.97.51 1.63 1.36.34.47.4 1.12.06.66-.59 1.19-.47.37-1.09.33-.63-.05-1.04-.42-.53-.69-1.42-1.1-.89-.4-2.04-.4-.47 0-1.02.11-.54.1-.95.46-.41.36-.41 1.14 0 .72.47 1.14.47.43 1.27.69.79.27 1.7.52.94.25 1.9.59.97.34 1.79.91.81.56 1.31 1.45.5.89.5 2.26 0 1.6-.94 2.72-.94 1.13-2.34 1.7-1.41.58-2.88.58-1.84 0-3.68-.64-1.85-.64-3.06-2.26Zm19.55-12.22v12.9q0 .82-.53 1.36-.53.55-1.34.55-.82 0-1.35-.55-.53-.54-.53-1.36v-12.9q0-.81.53-1.36.53-.54 1.35-.54.81 0 1.34.54.53.55.53 1.36Zm-1.9-3.93q-1.07 0-1.5-.35-.44-.34-.44-1.22v-.59q0-.9.48-1.23.49-.33 1.49-.33 1.09 0 1.53.34.43.35.43 1.22v.59q0 .91-.46 1.24-.47.33-1.53.33Zm7.96-3.13h7.12q1.63 0 3.05.94t2.3 2.53q.87 1.59.87 3.56 0 1.94-.87 3.53-.88 1.59-2.3 2.55-1.42.95-3.05.95h-5.74l.31-.56v6.46q0 .82-.5 1.36-.5.55-1.31.55-.78 0-1.28-.55-.5-.54-.5-1.36v-18.05q0-.81.54-1.36.55-.55 1.36-.55Zm1.34 10.5h5.78q.6 0 1.16-.5.56-.5.94-1.3.37-.79.37-1.67 0-.9-.37-1.69-.38-.78-.94-1.26-.56-.48-1.16-.48h-5.81l.38-.57v7.97l-.35-.5Zm28-5.34q.81 0 1.34.54.53.55.53 1.36v13.28q0 2.87-1.08 4.58-1.08 1.7-2.89 2.45-1.81.75-4.06.75-1 0-2.12-.16-1.13-.15-1.85-.47-.93-.4-1.29-1.01t-.14-1.3q.28-.9.9-1.23.63-.33 1.31-.08.5.16 1.32.48.81.33 1.87.33 1.44 0 2.39-.39.95-.39 1.44-1.31.48-.92.48-2.52v-2.09l.66.75q-.53 1.03-1.33 1.7-.8.68-1.89 1.02-1.09.34-2.5.34-1.65 0-2.89-.76-1.23-.77-1.92-2.13-.69-1.36-.69-3.11v-9.12q0-.81.53-1.36.54-.54 1.35-.54t1.34.54q.53.55.53 1.36v8q0 2.03.89 2.86.89.83 2.49.83 1.09 0 1.84-.43.75-.42 1.15-1.25.41-.82.41-2.01v-8q0-.81.53-1.36.53-.54 1.35-.54Z" data-gra="path-name" class="tp-name iconsvg-namesvg" style="fill: rgb(250, 250, 250);"/>
  </g>
</svg>